<?xml version="1.0" encoding="utf-8"?>
<!-- Generator: Adobe Illustrator 26.0.1, SVG Export Plug-In . SVG Version: 6.00 Build 0)  -->
<svg version="1.1" id="katman_1" xmlns="http://www.w3.org/2000/svg" xmlns:xlink="http://www.w3.org/1999/xlink" x="0px" y="0px"
	 viewBox="0 0 841.9 595.3" style="enable-background:new 0 0 841.9 595.3;" xml:space="preserve">
<style type="text/css">
	.st0{fill-rule:evenodd;clip-rule:evenodd;fill:#231F20;}
</style>
<g>
	<path class="st0" d="M223.7,221.7c-40.6,47.7-79.6,106.9-80,151.1c-0.2,16.6,5.2,31.2,17.9,42.2c18.3,15.8,38.5,21.4,58.6,21.5
		c29.4,0,58.6-11.8,81.4-20.9c38.5-15.4,463.7-200.1,463.7-200.1c4.1-2.1,3.3-4.6-1.8-3.3c-2.1,0.5-463,125.4-463,125.4
		c-8.9,2.5-18,3.8-26.8,3.8c-35.4,0.2-66.9-19.5-66.7-60.9C207.2,264.3,212.2,244.7,223.7,221.7L223.7,221.7z"/>
</g>
</svg>
